<svg width="120" height="120" viewBox="0 0 120 120" fill="none" xmlns="http://www.w3.org/2000/svg">
<rect width="120" height="120" fill="white"/>
<path d="M10 18C10 13.5817 13.5817 10 18 10H102C106.418 10 110 13.5817 110 18V102C110 106.418 106.418 110 102 110H18C13.5817 110 10 106.418 10 102V18Z" fill="white"/>
<g clip-path="url(#clip0_1126_5521)">
<path d="M60.93 25.566C60.3331 25.3268 59.6669 25.3268 59.07 25.566L29.23 37.501L41.25 42.306L72.02 30.001L60.93 25.566ZM78.75 32.696L47.98 45.001L60 49.806L90.77 37.501L78.75 32.696V32.696ZM95 41.196L62.5 54.196V93.806L95 80.806V41.201V41.196ZM57.5 93.811V54.191L25 41.196V80.811L57.5 93.811V93.811ZM57.215 20.921C59.0028 20.206 60.9972 20.206 62.785 20.921L98.43 35.181C98.8934 35.3667 99.2906 35.687 99.5705 36.1005C99.8503 36.514 99.9999 37.0018 100 37.501V80.811C99.9994 81.8101 99.6994 82.7861 99.1389 83.6132C98.5783 84.4402 97.7828 85.0804 96.855 85.451L60.93 99.821C60.3331 100.06 59.6669 100.06 59.07 99.821L23.15 85.451C22.2213 85.0811 21.4247 84.4413 20.8632 83.6142C20.3017 82.7871 20.001 81.8107 20 80.811V37.501C20.0001 37.0018 20.1497 36.514 20.4295 36.1005C20.7094 35.687 21.1066 35.3667 21.57 35.181L57.215 20.921Z" fill="#9B9A97"/>
</g>
<defs>
<clipPath id="clip0_1126_5521">
<rect width="80" height="80" fill="white" transform="translate(20 20)"/>
</clipPath>
</defs>
</svg>
